<svg xmlns="http://www.w3.org/2000/svg" viewBox="0 0 20 90" enable-background="new 0 0 20 90"><path fill="#868686" d="M1.85 9.018l1.91 1.91-1.91 1.91-1.908-1.91zM1.868 27.126l1.91 1.91-1.91 1.908-1.91-1.91zM1.815 45.303l1.91 1.91-1.91 1.91-1.91-1.91zM1.833 63.41l1.91 1.91-1.91 1.91-1.91-1.91zM1.85 81.518l1.91 1.91-1.91 1.908-1.91-1.91zM1.877-.07l1.91 1.91-1.91 1.908-1.91-1.91zM1.824 18.107l1.91 1.91-1.91 1.91-1.91-1.91zM1.842 36.214l1.91 1.91-1.91 1.91-1.91-1.91zM1.86 54.322l1.91 1.91-1.91 1.908-1.91-1.91zM1.877 72.43l1.91 1.908-1.91 1.91-1.91-1.91z"/></svg>