<svg xmlns="http://www.w3.org/2000/svg" viewBox="0 0 63.3 15" enable-background="new 0 0 63.3 15"><path fill="#3D4364" d="M56 15l7.3-7.5L55.6 0H0v15h56z"/><g fill="#282D44"><path d="M11.7 4.8c1.6 0 2.9 1.3 2.9 2.9s-1.3 2.9-2.9 2.9-2.8-1.3-2.8-2.9 1.2-2.9 2.8-2.9zm0 5c1.1 0 2.1-.9 2.1-2.1 0-1.1-.9-2.1-2.1-2.1-1.1 0-2.1 1-2.1 2.1.1 1.2 1 2.1 2.1 2.1zM15.8 5c0-.1.1-.1.2-.1h.2l3.5 4V5.1c0-.1.1-.2.2-.2h.5c.1 0 .2.1.2.2v5.4c0 .1-.1.1-.2.1H20l-3.5-4.1v3.9c0 .1-.1.2-.2.2h-.5c-.1 0-.2-.1-.2-.2V5zM23.7 5.1c0-.1.1-.2.2-.2h1.8c1 0 1.7.6 1.7 1.5 0 .6-.5 1.1-.8 1.3.4.2 1 .6 1 1.3 0 .9-.7 1.5-1.7 1.5H24c-.1 0-.2-.1-.2-.2V5.1zm2 4.7c.5 0 .9-.4.9-.9s-.5-.8-1-.8h-1.1v1.7h1.2zm-.1-2.5c.5 0 .8-.4.8-.9s-.3-.8-.8-.8h-1.1v1.7h1.1zM31.2 4.8c1.6 0 2.9 1.3 2.9 2.9s-1.3 2.9-2.9 2.9c-1.6 0-2.9-1.3-2.9-2.9s1.3-2.9 2.9-2.9zm0 5c1.1 0 2.1-.9 2.1-2.1 0-1.1-.9-2.1-2.1-2.1-1.1 0-2.1 1-2.1 2.1 0 1.2.9 2.1 2.1 2.1zM34.4 10.3l2.5-5.4.1-.1h.1s.1 0 .1.1l2.4 5.4c0 .1 0 .2-.1.2H39c-.1 0-.2 0-.2-.1l-.5-1.1h-2.6c-.2.4-.3.7-.5 1.1 0 .1-.1.1-.2.1h-.5c-.1 0-.1-.1-.1-.2zM38 8.6l-1-2.2-1 2.2h2zM40.5 5.1c0-.1.1-.2.2-.2h2.2c1 0 1.7.8 1.7 1.7 0 .7-.5 1.3-1.2 1.6l1.1 2c.1.1 0 .2-.1.2h-.6c-.1 0-.1 0-.1-.1l-1.1-2.1h-1.2v2c0 .1-.1.2-.2.2h-.5c-.1 0-.2-.1-.2-.2V5.1zm2.2 2.5c.5 0 1-.4 1-1 0-.5-.5-1-1-1h-1.4v1.9h1.4zM45.8 5.1c0-.1.1-.2.1-.2h1.8c1.5 0 2.8 1.3 2.8 2.8 0 1.6-1.3 2.8-2.8 2.8h-1.8c-.1 0-.1-.1-.1-.2V5.1zm1.8 4.6c1.2 0 2-.9 2-2 0-1.2-.9-2-2-2h-1.1v4.1h1.1z"/></g></svg>