<svg xmlns="http://www.w3.org/2000/svg" viewBox="0 0 80.6 14.6" enable-background="new 0 0 80.6 14.6"><path fill="#fff" d="M1.1 4.8c0-.4-.2-.6-.6-.6H0v-1h4.1c.5 0 .9.1 1.2.4.3.3.4.7.4 1.2V10c0 1.1-.5 1.6-1.6 1.6h-3V4.8zm.9 5.8h2c.4 0 .6-.2.6-.6V4.8c0-.4-.2-.6-.6-.6H2v6.4zM12.5 2v6.6h-1v-3h-3v3h-1V2L8.9.6c.7-.7 1.5-.7 2.2 0L12.5 2zm-2.1-.6c-.3-.3-.6-.3-.9 0l-1.1 1v2.2h3V2.4l-1-1zM15.1 6.2c0 .4.2.6.6.6h.8c1.1 0 1.6.5 1.6 1.6v1.5c0 1.1-.5 1.6-1.6 1.6h-2.3v-1h2.3c.4 0 .6-.2.6-.6V8.5c0-.4-.2-.6-.6-.6h-.8c-.5 0-.9-.1-1.2-.4-.3-.3-.4-.7-.4-1.2V4.8c0-.5.1-.9.4-1.2.3-.3.7-.4 1.2-.4h2v1h-2c-.4 0-.6.2-.6.6v1.4zM27.1 9.2v2.3h-3.7c-.7 0-1.3-.2-1.7-.6-.4-.4-.6-1-.6-1.7v-6c0-.6-.3-.9-.9-.9h-.6V0h7.2v2.3h-3.5v2.1h3.1v2.3h-3.1v1.6c0 .6.3.9.9.9h2.9zM30.6 7.2l-1.7-1.7v-2h2.3v1.2l.6.6c.4.4.8.4 1.2 0l.6-.6V3.5H36v2l-1.7 1.7L36 9v2.6h-2.3V9.8l-.7-.6c-.4-.4-.8-.4-1.2 0l-.6.6v1.7h-2.3V9l1.7-1.8zM38.5 6.6c0-.6-.3-.9-.9-.9h-.2V3.5h5.5c.7 0 1.3.2 1.7.6.4.4.6 1 .6 1.7v3.5c0 .7-.2 1.3-.6 1.7-.4.4-1 .6-1.7.6h-2.1v3.1h-2.3V6.6zM42 9.2c.6 0 .9-.3.9-.9V6.6c0-.6-.3-.9-.9-.9h-1.2v3.5H42zM47.1 0h2.3v8.4c0 .6.3.9.9.9h.2v2.3h-1.1c-.7 0-1.3-.2-1.7-.6-.4-.4-.6-1-.6-1.7V0zM54.1 3.8c.4-.4.9-.6 1.5-.6s1.1.2 1.5.6L59.3 6c.4.4.6.9.6 1.5s-.2 1.1-.6 1.5l-2.1 2.1c-.4.4-.9.6-1.5.6s-1.1-.2-1.5-.6L51.9 9c-.4-.4-.6-.9-.6-1.5s.2-1.1.6-1.5l2.2-2.2zM57 6.9l-.8-.7c-.4-.4-.8-.4-1.2 0l-.7.7c-.4.4-.4.8 0 1.2l.7.8c.4.4.8.4 1.2 0l.8-.8c.4-.4.4-.8 0-1.2zM61.7 11.5v-8h4.7v2.3h-1.5c-.6 0-.9.3-.9.9v4.9h-2.3zM71.1 9.8l1.3 1.3-1.6 1.6-2.6-2.6c-.4-.4-.6-1-.6-1.7V5.8c0-.7.2-1.3.6-1.7.4-.4 1-.6 1.7-.6h1.8c.9 0 1.6.2 2.1.5s.8.8.8 1.3c0 .6-.3 1.2-.9 1.9l-2.6 2.6zM69.9 8l1.6-1.7c.1 0 .1-.1.1-.3 0-.2-.2-.3-.4-.3h-.4c-.6 0-.9.3-.9.8V8zM75.9 11.5v-8h4.7v2.3H79c-.6 0-.9.3-.9.9v4.9h-2.2zM11.5 6.7h1v7.9h-1zM7.5 6.7h1v7.9h-1z"/></svg>