<?xml version="1.0" encoding="utf-8"?>
<!-- Generator: Adobe Illustrator 18.0.0, SVG Export Plug-In . SVG Version: 6.00 Build 0)  -->
<!DOCTYPE svg PUBLIC "-//W3C//DTD SVG 1.1//EN" "http://www.w3.org/Graphics/SVG/1.1/DTD/svg11.dtd">
<svg version="1.1" id="Laag_1" xmlns="http://www.w3.org/2000/svg" xmlns:xlink="http://www.w3.org/1999/xlink" x="0px" y="0px"
	 viewBox="0 0 22.7 2.9" enable-background="new 0 0 22.7 2.9" xml:space="preserve">
<rect x="0" fill="#F6F6F6" width="11.3" height="2.9"/>
<rect x="11.4" fill="#F6F6F6" width="11.3" height="2.9"/>
<line fill="none" stroke="#3C3C3B" stroke-width="0.25" stroke-miterlimit="10" x1="11.4" y1="0" x2="11.4" y2="2.9"/>
<line fill="none" stroke="#3C3C3B" stroke-width="0.25" stroke-miterlimit="10" x1="11.8" y1="0" x2="11.8" y2="2.9"/>
<line fill="none" stroke="#3C3C3B" stroke-width="0.25" stroke-miterlimit="10" x1="12.3" y1="0" x2="12.3" y2="2.9"/>
<line fill="none" stroke="#3C3C3B" stroke-width="0.25" stroke-miterlimit="10" x1="12.7" y1="0" x2="12.7" y2="2.9"/>
<line fill="none" stroke="#3C3C3B" stroke-width="0.25" stroke-miterlimit="10" x1="13.2" y1="0" x2="13.2" y2="2.9"/>
<line fill="none" stroke="#3C3C3B" stroke-width="0.25" stroke-miterlimit="10" x1="13.6" y1="0" x2="13.6" y2="2.9"/>
<line fill="none" stroke="#3C3C3B" stroke-width="0.25" stroke-miterlimit="10" x1="14" y1="0" x2="14" y2="2.9"/>
<line fill="none" stroke="#3C3C3B" stroke-width="0.25" stroke-miterlimit="10" x1="14.5" y1="0" x2="14.5" y2="2.9"/>
<line fill="none" stroke="#3C3C3B" stroke-width="0.25" stroke-miterlimit="10" x1="14.9" y1="0" x2="14.9" y2="2.9"/>
<line fill="none" stroke="#3C3C3B" stroke-width="0.25" stroke-miterlimit="10" x1="15.4" y1="0" x2="15.4" y2="2.9"/>
<line fill="none" stroke="#3C3C3B" stroke-width="0.25" stroke-miterlimit="10" x1="15.8" y1="0" x2="15.8" y2="2.9"/>
<line fill="none" stroke="#3C3C3B" stroke-width="0.25" stroke-miterlimit="10" x1="16.3" y1="0" x2="16.3" y2="2.9"/>
<line fill="none" stroke="#3C3C3B" stroke-width="0.25" stroke-miterlimit="10" x1="16.7" y1="0" x2="16.7" y2="2.9"/>
<line fill="none" stroke="#3C3C3B" stroke-width="0.25" stroke-miterlimit="10" x1="17.2" y1="0" x2="17.2" y2="2.9"/>
<line fill="none" stroke="#3C3C3B" stroke-width="0.25" stroke-miterlimit="10" x1="17.6" y1="0" x2="17.6" y2="2.9"/>
<line fill="none" stroke="#3C3C3B" stroke-width="0.25" stroke-miterlimit="10" x1="18.1" y1="0" x2="18.1" y2="2.9"/>
<line fill="none" stroke="#3C3C3B" stroke-width="0.25" stroke-miterlimit="10" x1="18.5" y1="0" x2="18.5" y2="2.9"/>
<line fill="none" stroke="#3C3C3B" stroke-width="0.25" stroke-miterlimit="10" x1="18.9" y1="0" x2="18.9" y2="2.9"/>
<line fill="none" stroke="#3C3C3B" stroke-width="0.25" stroke-miterlimit="10" x1="19.4" y1="0" x2="19.4" y2="2.9"/>
<line fill="none" stroke="#3C3C3B" stroke-width="0.25" stroke-miterlimit="10" x1="19.8" y1="0" x2="19.8" y2="2.9"/>
<line fill="none" stroke="#3C3C3B" stroke-width="0.25" stroke-miterlimit="10" x1="20.3" y1="0" x2="20.3" y2="2.9"/>
<line fill="none" stroke="#3C3C3B" stroke-width="0.25" stroke-miterlimit="10" x1="20.7" y1="0" x2="20.7" y2="2.9"/>
<line fill="none" stroke="#3C3C3B" stroke-width="0.25" stroke-miterlimit="10" x1="21.2" y1="0" x2="21.2" y2="2.9"/>
<line fill="none" stroke="#3C3C3B" stroke-width="0.25" stroke-miterlimit="10" x1="21.6" y1="0" x2="21.6" y2="2.9"/>
<line fill="none" stroke="#3C3C3B" stroke-width="0.25" stroke-miterlimit="10" x1="22.1" y1="0" x2="22.1" y2="2.9"/>
<line fill="none" stroke="#3C3C3B" stroke-width="0.25" stroke-miterlimit="10" x1="22.5" y1="0" x2="22.5" y2="2.9"/>
</svg>
