<?xml version="1.0" encoding="utf-8"?>
<!-- Generator: Adobe Illustrator 18.0.0, SVG Export Plug-In . SVG Version: 6.00 Build 0)  -->
<!DOCTYPE svg PUBLIC "-//W3C//DTD SVG 1.1//EN" "http://www.w3.org/Graphics/SVG/1.1/DTD/svg11.dtd">
<svg version="1.1" id="Laag_1" xmlns="http://www.w3.org/2000/svg" xmlns:xlink="http://www.w3.org/1999/xlink" x="0px" y="0px"
	 viewBox="0 0 20 90" enable-background="new 0 0 20 90" xml:space="preserve">
<rect x="0.5" y="9.6" transform="matrix(0.7071 0.7071 -0.7071 0.7071 8.2854 1.8767)" fill="#868686" width="2.7" height="2.7"/>
<rect x="0.5" y="27.7" transform="matrix(0.7071 0.7071 -0.7071 0.7071 21.1016 7.1853)" fill="#868686" width="2.7" height="2.7"/>
<rect x="0.5" y="45.9" transform="matrix(0.7071 0.7071 -0.7071 0.7071 33.9177 12.4939)" fill="#868686" width="2.7" height="2.7"/>
<rect x="0.5" y="64" transform="matrix(0.7071 0.7071 -0.7071 0.7071 46.7339 17.8025)" fill="#868686" width="2.7" height="2.7"/>
<rect x="0.5" y="82.1" transform="matrix(0.7071 0.7071 -0.7071 0.7071 59.55 23.1112)" fill="#868686" width="2.7" height="2.7"/>
<rect x="0.5" y="0.5" transform="matrix(0.7071 0.7071 -0.7071 0.7071 1.8774 -0.7776)" fill="#868686" width="2.7" height="2.7"/>
<rect x="0.5" y="18.7" transform="matrix(0.7071 0.7071 -0.7071 0.7071 14.6935 4.531)" fill="#868686" width="2.7" height="2.7"/>
<rect x="0.5" y="36.8" transform="matrix(0.7071 0.7071 -0.7071 0.7071 27.5097 9.8396)" fill="#868686" width="2.7" height="2.7"/>
<rect x="0.5" y="54.9" transform="matrix(0.7071 0.7071 -0.7071 0.7071 40.3258 15.1482)" fill="#868686" width="2.7" height="2.7"/>
<rect x="0.5" y="73" transform="matrix(0.7071 0.7071 -0.7071 0.7071 53.142 20.4569)" fill="#868686" width="2.7" height="2.7"/>
</svg>
