<?xml version="1.0" encoding="utf-8"?>
<!-- Generator: Adobe Illustrator 18.0.0, SVG Export Plug-In . SVG Version: 6.00 Build 0)  -->
<!DOCTYPE svg PUBLIC "-//W3C//DTD SVG 1.1//EN" "http://www.w3.org/Graphics/SVG/1.1/DTD/svg11.dtd">
<svg version="1.1" id="Laag_1" xmlns="http://www.w3.org/2000/svg" xmlns:xlink="http://www.w3.org/1999/xlink" x="0px" y="0px"
	 viewBox="0 0 80.6 14.6" enable-background="new 0 0 80.6 14.6" xml:space="preserve">
<path fill="#FFFFFF" d="M1.1,4.8c0-0.4-0.2-0.6-0.6-0.6H0v-1h4.1c0.5,0,0.9,0.1,1.2,0.4c0.3,0.3,0.4,0.7,0.4,1.2v5.2
	c0,1.1-0.5,1.6-1.6,1.6h-3V4.8z M2,10.6h2c0.4,0,0.6-0.2,0.6-0.6V4.8c0-0.4-0.2-0.6-0.6-0.6H2V10.6z"/>
<path fill="#FFFFFF" d="M12.5,2v6.6h-1v-3h-3v3h-1V2l1.4-1.4c0.7-0.7,1.5-0.7,2.2,0L12.5,2z M10.4,1.4c-0.3-0.3-0.6-0.3-0.9,0
	L8.4,2.4v2.2h3V2.4L10.4,1.4z"/>
<path fill="#FFFFFF" d="M15.1,6.2c0,0.4,0.2,0.6,0.6,0.6h0.8c1.1,0,1.6,0.5,1.6,1.6v1.5c0,1.1-0.5,1.6-1.6,1.6h-2.3v-1h2.3
	c0.4,0,0.6-0.2,0.6-0.6V8.5c0-0.4-0.2-0.6-0.6-0.6h-0.8c-0.5,0-0.9-0.1-1.2-0.4c-0.3-0.3-0.4-0.7-0.4-1.2V4.8c0-0.5,0.1-0.9,0.4-1.2
	c0.3-0.3,0.7-0.4,1.2-0.4h2v1h-2c-0.4,0-0.6,0.2-0.6,0.6V6.2z"/>
<path fill="#FFFFFF" d="M27.1,9.2v2.3h-3.7c-0.7,0-1.3-0.2-1.7-0.6c-0.4-0.4-0.6-1-0.6-1.7V3.2c0-0.6-0.3-0.9-0.9-0.9h-0.6V0h7.2
	v2.3h-3.5v2.1h3.1v2.3h-3.1v1.6c0,0.6,0.3,0.9,0.9,0.9H27.1z"/>
<path fill="#FFFFFF" d="M30.6,7.2l-1.7-1.7v-2h2.3v1.2l0.6,0.6c0.4,0.4,0.8,0.4,1.2,0l0.6-0.6V3.5H36v2l-1.7,1.7L36,9v2.6h-2.3V9.8
	L33,9.2c-0.4-0.4-0.8-0.4-1.2,0l-0.6,0.6v1.7h-2.3V9L30.6,7.2z"/>
<path fill="#FFFFFF" d="M38.5,6.6c0-0.6-0.3-0.9-0.9-0.9h-0.2V3.5h5.5c0.7,0,1.3,0.2,1.7,0.6c0.4,0.4,0.6,1,0.6,1.7v3.5
	c0,0.7-0.2,1.3-0.6,1.7c-0.4,0.4-1,0.6-1.7,0.6h-2.1v3.1h-2.3V6.6z M42,9.2c0.6,0,0.9-0.3,0.9-0.9V6.6c0-0.6-0.3-0.9-0.9-0.9h-1.2
	v3.5H42z"/>
<path fill="#FFFFFF" d="M47.1,0h2.3v8.4c0,0.6,0.3,0.9,0.9,0.9h0.2v2.3h-1.1c-0.7,0-1.3-0.2-1.7-0.6c-0.4-0.4-0.6-1-0.6-1.7V0z"/>
<path fill="#FFFFFF" d="M54.1,3.8c0.4-0.4,0.9-0.6,1.5-0.6c0.6,0,1.1,0.2,1.5,0.6L59.3,6c0.4,0.4,0.6,0.9,0.6,1.5S59.7,8.6,59.3,9
	l-2.1,2.1c-0.4,0.4-0.9,0.6-1.5,0.6c-0.6,0-1.1-0.2-1.5-0.6L51.9,9c-0.4-0.4-0.6-0.9-0.6-1.5s0.2-1.1,0.6-1.5L54.1,3.8z M57,6.9
	l-0.8-0.7c-0.4-0.4-0.8-0.4-1.2,0l-0.7,0.7c-0.4,0.4-0.4,0.8,0,1.2L55,8.9c0.4,0.4,0.8,0.4,1.2,0L57,8.1C57.4,7.7,57.4,7.3,57,6.9z"
	/>
<path fill="#FFFFFF" d="M61.7,11.5V3.5h4.7v2.3h-1.5c-0.6,0-0.9,0.3-0.9,0.9v4.9H61.7z"/>
<path fill="#FFFFFF" d="M71.1,9.8l1.3,1.3l-1.6,1.6l-2.6-2.6c-0.4-0.4-0.6-1-0.6-1.7V5.8c0-0.7,0.2-1.3,0.6-1.7
	c0.4-0.4,1-0.6,1.7-0.6h1.8c0.9,0,1.6,0.2,2.1,0.5c0.5,0.3,0.8,0.8,0.8,1.3c0,0.6-0.3,1.2-0.9,1.9L71.1,9.8z M69.9,8l1.6-1.7
	c0.1,0,0.1-0.1,0.1-0.3c0-0.2-0.2-0.3-0.4-0.3h-0.4c-0.6,0-0.9,0.3-0.9,0.8V8z"/>
<path fill="#FFFFFF" d="M75.9,11.5V3.5h4.7v2.3H79c-0.6,0-0.9,0.3-0.9,0.9v4.9H75.9z"/>
<rect x="11.5" y="6.7" fill="#FFFFFF" width="1" height="7.9"/>
<rect x="7.5" y="6.7" fill="#FFFFFF" width="1" height="7.9"/>
</svg>
