<?xml version="1.0" encoding="utf-8"?>
<!-- Generator: Adobe Illustrator 18.0.0, SVG Export Plug-In . SVG Version: 6.00 Build 0)  -->
<!DOCTYPE svg PUBLIC "-//W3C//DTD SVG 1.1//EN" "http://www.w3.org/Graphics/SVG/1.1/DTD/svg11.dtd">
<svg version="1.1" id="Laag_1" xmlns="http://www.w3.org/2000/svg" xmlns:xlink="http://www.w3.org/1999/xlink" x="0px" y="0px"
	 viewBox="0 0 63.3 15" enable-background="new 0 0 63.3 15" xml:space="preserve">
<polygon fill="#3D4364" points="56,15 63.3,7.5 55.6,0 55.5,0 0,0 0,15 55.4,15 55.5,15 55.5,15 56,15 "/>
<g>
	<path fill="#282D44" d="M11.7,4.8c1.6,0,2.9,1.3,2.9,2.9s-1.3,2.9-2.9,2.9S8.9,9.3,8.9,7.7S10.1,4.8,11.7,4.8z M11.7,9.8
		c1.1,0,2.1-0.9,2.1-2.1c0-1.1-0.9-2.1-2.1-2.1c-1.1,0-2.1,1-2.1,2.1C9.7,8.9,10.6,9.8,11.7,9.8z"/>
	<path fill="#282D44" d="M15.8,5c0-0.1,0.1-0.1,0.2-0.1h0.2l3.5,4h0V5.1c0-0.1,0.1-0.2,0.2-0.2h0.5c0.1,0,0.2,0.1,0.2,0.2v5.4
		c0,0.1-0.1,0.1-0.2,0.1H20l-3.5-4.1h0v3.9c0,0.1-0.1,0.2-0.2,0.2h-0.5c-0.1,0-0.2-0.1-0.2-0.2V5z"/>
	<path fill="#282D44" d="M23.7,5.1c0-0.1,0.1-0.2,0.2-0.2h1.8c1,0,1.7,0.6,1.7,1.5c0,0.6-0.5,1.1-0.8,1.3c0.4,0.2,1,0.6,1,1.3
		c0,0.9-0.7,1.5-1.7,1.5h-1.9c-0.1,0-0.2-0.1-0.2-0.2V5.1z M25.7,9.8c0.5,0,0.9-0.4,0.9-0.9c0-0.5-0.5-0.8-1-0.8h-1.1v1.7H25.7z
		 M25.6,7.3c0.5,0,0.8-0.4,0.8-0.9c0-0.5-0.3-0.8-0.8-0.8h-1.1v1.7H25.6z"/>
	<path fill="#282D44" d="M31.2,4.8c1.6,0,2.9,1.3,2.9,2.9s-1.3,2.9-2.9,2.9c-1.6,0-2.9-1.3-2.9-2.9S29.6,4.8,31.2,4.8z M31.2,9.8
		c1.1,0,2.1-0.9,2.1-2.1c0-1.1-0.9-2.1-2.1-2.1c-1.1,0-2.1,1-2.1,2.1C29.1,8.9,30,9.8,31.2,9.8z"/>
	<path fill="#282D44" d="M34.4,10.3l2.5-5.4c0,0,0.1-0.1,0.1-0.1h0.1c0,0,0.1,0,0.1,0.1l2.4,5.4c0,0.1,0,0.2-0.1,0.2H39
		c-0.1,0-0.2,0-0.2-0.1l-0.5-1.1h-2.6c-0.2,0.4-0.3,0.7-0.5,1.1c0,0.1-0.1,0.1-0.2,0.1h-0.5C34.4,10.5,34.4,10.4,34.4,10.3z M38,8.6
		l-1-2.2h0l-1,2.2H38z"/>
	<path fill="#282D44" d="M40.5,5.1c0-0.1,0.1-0.2,0.2-0.2h2.2c1,0,1.7,0.8,1.7,1.7c0,0.7-0.5,1.3-1.2,1.6l1.1,2
		c0.1,0.1,0,0.2-0.1,0.2h-0.6c-0.1,0-0.1,0-0.1-0.1l-1.1-2.1h-1.2v2c0,0.1-0.1,0.2-0.2,0.2h-0.5c-0.1,0-0.2-0.1-0.2-0.2V5.1z
		 M42.7,7.6c0.5,0,1-0.4,1-1c0-0.5-0.5-1-1-1h-1.4v1.9H42.7z"/>
	<path fill="#282D44" d="M45.8,5.1c0-0.1,0.1-0.2,0.1-0.2h1.8c1.5,0,2.8,1.3,2.8,2.8c0,1.6-1.3,2.8-2.8,2.8h-1.8
		c-0.1,0-0.1-0.1-0.1-0.2V5.1z M47.6,9.7c1.2,0,2-0.9,2-2c0-1.2-0.9-2-2-2h-1.1v4.1H47.6z"/>
</g>
</svg>
